<svg xmlns="http://www.w3.org/2000/svg" viewBox="0 0 1395.83 1395.83"><defs><style>.cls-1{fill:#fff;}</style></defs><g id="Layer_2" data-name="Layer 2"><g id="Layer_1-2" data-name="Layer 1"><path class="cls-1" d="M697.92,1395.33a697.6,697.6,0,0,1-271.47-1340A697.6,697.6,0,0,1,969.38,1340.53,693.14,693.14,0,0,1,697.92,1395.33Z"/><path d="M697.92,1a693.75,693.75,0,0,1,389.65,119,699,699,0,0,1,252.5,306.63,695.95,695.95,0,0,1-64.26,660.92,699,699,0,0,1-306.62,252.5,696,696,0,0,1-660.93-64.26A698.87,698.87,0,0,1,55.77,969.19,696.09,696.09,0,0,1,120,308.26,698.8,698.8,0,0,1,426.65,55.77,692.51,692.51,0,0,1,697.92,1m0-1C312.47,0,0,312.47,0,697.92s312.47,697.91,697.92,697.91,697.91-312.46,697.91-697.91S1083.37,0,697.92,0Z"/></g></g></svg>