<svg xmlns="http://www.w3.org/2000/svg" xmlns:xlink="http://www.w3.org/1999/xlink" viewBox="0 0 449.01 334.54"><defs><style>.cls-1{fill:url(#linear-gradient);}.cls-2{fill:url(#linear-gradient-2);}</style><linearGradient id="linear-gradient" x1="274.91" y1="20.45" x2="416.09" y2="20.45" gradientUnits="userSpaceOnUse"><stop offset="0" stop-color="#e6cf4c"/><stop offset="0.98" stop-color="#e6a51f"/></linearGradient><linearGradient id="linear-gradient-2" x1="0" y1="180.24" x2="449.01" y2="180.24" xlink:href="#linear-gradient"/></defs><g id="Layer_2" data-name="Layer 2"><g id="Layer_1-2" data-name="Layer 1"><path class="cls-1" d="M287,0H404a12.11,12.11,0,0,1,12.11,12.11V40.9a0,0,0,0,1,0,0H274.91a0,0,0,0,1,0,0V12.11A12.11,12.11,0,0,1,287,0Z"/><path class="cls-2" d="M12.11,25.94H436.9A12.11,12.11,0,0,1,449,38.05V334.54a0,0,0,0,1,0,0H0a0,0,0,0,1,0,0V38.05A12.11,12.11,0,0,1,12.11,25.94Z"/></g></g></svg>